<?xml version="1.0" standalone="no"?>
<!DOCTYPE svg PUBLIC "-//W3C//DTD SVG 20010904//EN"
 "http://www.w3.org/TR/2001/REC-SVG-20010904/DTD/svg10.dtd">
<svg version="1.0" xmlns="http://www.w3.org/2000/svg"
 width="1080.000000pt" height="1080.000000pt" viewBox="0 0 1080.000000 1080.000000"
 preserveAspectRatio="xMidYMid meet">
<metadata>
Created by potrace 1.16, written by Peter Selinger 2001-2019
</metadata>
<g transform="translate(0.000000,1080.000000) scale(0.100000,-0.100000)"
fill="#000000" stroke="none">
<path d="M0 5400 l0 -5400 4895 0 c4344 0 4895 2 4895 15 0 8 4 15 10 15 5 0
7 7 4 15 -4 8 1 17 10 21 10 4 16 18 16 35 0 23 5 29 20 29 17 0 19 3 10 19
-5 11 -18 27 -27 37 -16 16 -16 16 6 9 l23 -7 -23 42 c-21 37 -25 40 -36 24
-11 -16 -13 -16 -13 -2 0 14 48 58 63 58 3 0 12 -6 20 -14 15 -15 25 -9 65 39
15 18 2 21 -16 3 -9 -9 -12 -8 -12 8 0 10 10 24 23 29 12 6 22 17 23 25 2 29
16 60 27 60 6 0 1 7 -11 16 -19 13 -21 22 -17 57 4 33 3 37 -4 20 -14 -32 -29
-29 -24 5 3 26 3 26 -8 5 -16 -31 -28 -29 -36 8 -4 20 -8 26 -14 18 -11 -18
-78 -20 -87 -2 -5 8 -15 11 -25 7 -9 -3 -15 -10 -12 -14 8 -12 -18 -18 -40 -9
-14 5 -15 8 -5 9 8 1 -1 6 -20 13 -19 7 -35 18 -34 25 1 6 2 23 3 37 1 18 7
25 21 25 11 0 20 5 20 11 0 5 4 8 9 4 5 -3 15 11 22 32 9 30 9 38 -2 47 -37
30 -52 103 -25 125 18 15 31 -2 40 -51 4 -21 9 -38 12 -38 3 0 18 9 34 20 15
11 30 17 33 14 3 -3 11 3 18 14 15 24 49 18 42 -7 -3 -14 2 -18 25 -18 23 0
29 4 25 16 -4 13 -3 13 5 2 13 -18 4 -41 -16 -41 -8 0 -13 -2 -10 -5 3 -4 17
-3 32 1 21 5 25 10 20 29 -7 28 11 42 24 19 6 -10 16 -15 25 -11 9 3 18 -1 21
-9 3 -8 13 -14 21 -14 12 0 15 6 10 23 -3 12 -3 17 2 11 11 -16 73 -23 73 -9
0 7 -12 10 -32 8 -31 -4 -32 -3 -12 9 18 11 20 17 11 38 -36 86 -51 146 -27
110 8 -12 10 -11 10 8 0 15 6 22 19 22 11 0 23 5 26 10 3 6 15 10 27 10 18 0
19 2 7 17 -12 15 -12 16 4 10 10 -4 21 -7 23 -7 3 0 2 -5 -2 -11 -4 -7 -1 -10
7 -7 21 7 59 -39 59 -73 0 -16 4 -29 9 -29 8 0 18 -36 25 -92 3 -28 -16 -39
-29 -18 -11 18 -40 11 -88 -21 -39 -25 -50 -29 -62 -19 -12 10 -18 10 -30 0
-22 -18 -18 -28 8 -23 16 3 28 -5 44 -28 20 -29 21 -34 6 -44 -10 -7 -14 -19
-10 -29 4 -9 1 -26 -6 -38 -16 -27 -66 -78 -77 -78 -15 0 1 -28 18 -34 10 -3
-1 -3 -24 0 -36 5 -41 3 -53 -22 -15 -33 0 -47 42 -40 15 3 27 1 27 -4 0 -5
13 -5 32 1 18 5 34 9 35 9 2 0 3 -8 3 -17 1 -19 22 -53 34 -53 3 0 6 10 6 23
0 17 2 19 9 7 6 -8 7 -18 4 -23 -4 -6 5 -7 21 -3 14 3 38 9 54 12 15 4 38 15
51 26 16 12 27 15 31 8 4 -6 12 1 18 15 7 14 17 23 22 20 6 -3 10 -1 10 6 0 9
3 9 14 0 21 -18 51 15 80 88 31 76 30 71 11 71 -9 0 -12 6 -9 15 4 8 2 15 -3
15 -12 0 -35 49 -28 60 3 5 1 11 -5 15 -6 4 -8 11 -5 16 10 15 -26 23 -46 11
-19 -12 -35 0 -24 18 3 5 2 10 -4 10 -21 0 2 29 27 35 61 13 72 13 72 3 0 -5
-7 -7 -16 -4 -12 5 -14 0 -9 -27 3 -17 7 -38 7 -44 1 -7 6 -13 11 -13 5 0 7 9
4 20 -4 15 0 20 16 20 12 0 32 3 44 6 19 5 21 3 17 -18 l-6 -23 21 24 c20 22
26 40 22 69 -2 10 6 12 28 7 20 -4 31 -3 31 4 0 6 4 11 10 11 5 0 7 -6 4 -14
-3 -8 -1 -17 5 -21 6 -3 11 1 11 11 0 14 8 16 55 12 30 -3 55 -1 55 4 0 4 7 8
15 8 22 0 18 14 -14 49 -27 29 -61 42 -61 23 0 -4 -12 -9 -27 -10 -14 -1 -34
-9 -43 -17 -12 -11 -33 -14 -68 -12 -35 2 -53 -2 -56 -10 -3 -7 -12 -13 -20
-13 -8 0 -17 -6 -19 -12 -3 -7 -6 4 -6 25 -1 26 -5 37 -16 37 -9 0 -15 9 -15
25 0 14 5 25 10 25 6 0 10 7 10 16 0 9 5 12 12 8 8 -5 9 -2 5 9 -3 10 -2 17 2
17 5 0 11 7 14 14 4 11 1 13 -11 9 -15 -6 -15 -4 1 15 17 19 28 20 133 18 91
-2 114 0 110 10 -3 8 0 11 10 7 7 -3 14 -10 14 -17 0 -6 4 -5 9 3 5 8 16 11
25 8 14 -6 16 20 16 259 l-1 266 -24 -5 c-21 -3 -25 0 -25 18 0 23 24 40 41
29 5 -3 9 64 9 162 0 149 -2 165 -16 154 -12 -11 -15 -11 -12 1 2 10 -8 15
-33 17 -27 2 -39 9 -48 28 -12 27 -15 51 -5 41 10 -9 44 12 43 26 0 9 -2 9 -6
0 -3 -9 -10 -10 -24 -3 -27 15 -64 -8 -64 -40 0 -22 -5 -25 -37 -28 -29 -2
-38 0 -38 12 0 9 9 21 20 28 33 21 25 39 -9 22 -34 -17 -57 -11 -64 17 -4 14
-1 19 7 16 7 -3 21 4 30 14 15 19 15 21 -11 44 -16 13 -22 25 -15 25 17 0 15
27 -2 33 -8 3 -20 -1 -26 -9 -14 -16 -56 -19 -65 -3 -4 5 1 19 11 30 14 16 26
19 50 14 18 -3 35 -1 39 5 13 21 24 8 27 -33 2 -35 7 -43 25 -45 26 -4 39 31
29 78 -5 26 -2 31 19 36 14 3 31 1 39 -5 18 -15 26 4 19 45 l-4 29 21 -24 21
-24 28 27 c27 26 30 27 40 9 7 -13 10 134 11 509 l0 528 -55 0 c-51 0 -56 2
-65 26 -13 33 0 52 38 56 21 2 28 10 32 33 4 22 11 31 28 33 19 3 22 9 22 48
0 43 -1 44 -32 45 -18 1 -38 1 -44 0 -7 -1 -23 3 -38 9 -24 9 -25 12 -19 57 3
26 11 51 17 55 6 4 35 8 64 8 l52 0 0 533 0 533 -45 18 c-24 10 -52 27 -61 37
-10 11 -27 19 -40 19 -12 0 -24 4 -26 9 -2 6 -21 6 -45 2 -25 -5 -46 -4 -52 2
-5 5 -18 6 -28 2 -10 -5 -38 -10 -63 -12 -45 -4 -60 -15 -60 -45 0 -13 8 -18
25 -18 14 0 25 4 25 9 0 15 72 10 88 -5 8 -8 28 -18 44 -21 64 -13 39 -61 -46
-89 -28 -10 -60 -18 -71 -20 -11 -1 -45 -6 -76 -9 l-55 -7 1 40 c0 22 7 48 15
57 11 14 11 18 1 25 -8 4 -10 13 -6 19 4 8 -1 10 -17 6 -12 -3 -36 -7 -52 -9
-16 -2 -36 -12 -45 -23 -10 -13 -26 -20 -43 -19 -21 1 -28 -3 -28 -16 0 -20
-29 -38 -63 -38 -13 0 -34 -9 -47 -20 -13 -11 -30 -20 -39 -20 -9 0 -29 -7
-45 -15 -17 -9 -33 -12 -40 -6 -6 4 -24 11 -41 15 -32 8 -87 54 -79 67 2 4 0
10 -6 14 -6 4 -5 14 3 28 7 12 13 37 12 55 0 30 -6 37 -50 63 -27 15 -60 28
-72 29 -13 0 -23 6 -23 13 0 8 -4 7 -10 -3 -9 -13 -10 -13 -11 0 -1 8 -1 18
-1 21 1 3 -11 4 -25 1 -18 -3 -24 -1 -19 7 4 6 14 11 22 11 8 0 14 5 14 10 0
6 7 10 15 10 27 0 15 19 -17 28 -38 10 -48 7 -48 -15 0 -15 -2 -15 -18 -1 -9
9 -39 18 -67 21 -75 6 -155 30 -155 45 0 7 -4 11 -9 8 -24 -15 -40 58 -18 80
10 10 -25 64 -43 65 -10 0 -11 2 -2 6 6 2 12 13 12 24 0 10 7 19 15 19 7 0 18
6 22 14 4 8 19 16 33 18 14 2 30 7 37 11 13 8 60 -8 83 -28 8 -7 50 -15 95
-18 44 -3 88 -8 98 -12 20 -8 22 2 5 41 -7 16 -20 29 -28 29 -9 0 -14 7 -12
18 2 9 -4 20 -13 23 -9 4 -15 17 -14 33 1 14 -2 34 -6 44 -4 9 -3 17 3 17 5 0
7 12 4 26 -3 19 -1 25 6 20 8 -5 10 -2 6 8 -4 11 0 16 14 16 13 0 22 -9 26
-25 4 -16 13 -25 25 -25 29 0 51 -11 51 -25 0 -21 51 -34 69 -18 44 38 185
143 193 143 4 0 8 7 8 15 0 9 20 36 44 61 25 25 45 53 46 62 0 9 1 49 1 89 0
44 6 83 14 100 18 33 19 59 4 69 -6 3 -9 14 -6 24 3 11 -6 28 -22 44 -29 28
-82 40 -169 39 -64 -1 -115 -35 -143 -97 -23 -53 -85 -112 -129 -123 -32 -9
-35 -12 -36 -49 -1 -21 3 -48 9 -58 7 -15 6 -22 -7 -31 -17 -13 -23 -30 -6
-20 6 4 10 -6 10 -23 0 -22 -6 -32 -22 -37 l-23 -8 23 -4 c12 -2 22 -10 22
-17 0 -8 7 -19 15 -26 21 -17 19 -33 -2 -21 -13 7 -23 5 -35 -6 -15 -13 -19
-12 -46 7 -32 24 -88 133 -77 151 10 16 -25 49 -52 49 -14 0 -34 -12 -48 -28
-13 -15 -40 -37 -59 -47 -20 -11 -39 -28 -42 -37 -3 -10 -10 -18 -15 -18 -5 0
-9 -10 -9 -22 0 -11 -14 -51 -31 -87 -17 -36 -38 -81 -46 -99 -14 -30 -14 -36
1 -70 9 -20 14 -49 11 -64 -3 -16 1 -32 10 -42 9 -8 21 -30 27 -47 9 -26 8
-34 -4 -43 -8 -6 -22 -25 -31 -42 -15 -29 -20 -32 -62 -29 -35 2 -56 11 -89
39 -25 20 -49 36 -55 36 -6 0 -11 7 -11 14 0 8 -16 27 -35 41 -19 15 -37 35
-40 45 -10 31 -94 80 -136 80 -24 0 -39 5 -43 16 -3 9 -11 14 -18 12 -20 -7
-47 28 -41 52 15 57 -69 119 -154 115 -30 -1 -50 2 -47 7 3 5 -5 6 -19 3 -14
-4 -28 -2 -31 4 -4 5 -14 8 -24 5 -10 -4 -13 -3 -6 3 6 4 14 17 19 28 7 18 9
18 12 3 3 -10 9 -18 14 -18 16 0 10 17 -17 44 -15 14 -23 26 -19 26 5 0 1 8
-8 18 -15 17 -15 20 11 48 15 17 27 40 28 52 0 19 -8 28 -19 20 -2 -2 -19 13
-38 32 -63 64 -63 64 -98 34 -17 -14 -31 -32 -31 -40 0 -8 -7 -14 -15 -14 -8
0 -15 -8 -15 -17 0 -9 -10 -27 -22 -40 -22 -24 -25 -49 -15 -136 4 -29 1 -40
-13 -47 -25 -13 -30 -13 -30 5 0 9 -9 15 -21 15 -25 0 -89 37 -89 51 0 6 -4 7
-10 4 -5 -3 -12 6 -16 20 -3 14 -11 25 -18 25 -6 0 -19 18 -29 40 -12 28 -23
40 -35 38 -23 -4 -29 55 -8 87 9 14 16 40 16 59 0 19 4 38 10 41 22 13 9 27
-19 22 -18 -4 -31 -2 -33 5 -3 7 -31 12 -76 12 -94 1 -101 -8 -97 -126 3 -89
9 -113 26 -103 5 4 9 -3 9 -14 0 -11 -9 -25 -20 -31 -11 -6 -20 -18 -20 -26 0
-28 -40 -74 -64 -74 -13 0 -33 -9 -46 -20 -13 -11 -26 -20 -30 -20 -4 0 -15
-15 -24 -34 -9 -19 -22 -36 -28 -38 -24 -8 -118 13 -118 27 0 7 -8 12 -17 11
-9 0 -22 9 -28 21 -7 13 -14 20 -17 17 -11 -10 -57 62 -62 96 -11 77 -10 75
-58 75 -28 0 -51 6 -61 17 -9 9 -40 19 -69 23 -59 8 -75 16 -125 63 -20 18
-42 31 -49 28 -9 -3 -14 2 -14 14 0 11 -5 20 -11 20 -6 0 -9 -6 -6 -14 3 -8
-1 -17 -9 -20 -12 -5 -11 -11 4 -38 23 -41 92 -210 92 -224 0 -6 8 -18 18 -27
21 -20 63 -101 97 -192 24 -63 94 -218 131 -287 8 -14 14 -35 14 -46 0 -10 9
-31 21 -46 11 -14 18 -26 15 -26 -4 0 1 -17 9 -37 9 -20 13 -43 10 -50 -2 -8
-1 -12 3 -9 16 10 72 -83 87 -146 4 -15 13 -32 21 -39 8 -6 14 -19 14 -29 0
-9 9 -42 19 -73 11 -32 17 -57 14 -57 -3 0 0 -7 7 -15 12 -15 11 -16 -37 -31
-7 -2 -10 -9 -7 -17 6 -16 -28 -49 -47 -45 -8 2 -15 -4 -15 -12 -1 -8 -2 -21
-3 -27 -1 -18 -16 -16 -35 3 -10 10 -16 11 -16 3 0 -8 -3 -9 -13 0 -8 6 -16 8
-20 5 -3 -3 -3 3 0 15 5 18 1 21 -30 21 -55 0 -67 8 -67 46 0 24 -5 34 -16 34
-11 0 -14 -6 -9 -20 4 -12 1 -27 -5 -35 -14 -17 -70 -20 -70 -5 0 6 -5 10 -11
10 -5 0 -7 -4 -4 -10 3 -5 -4 -10 -15 -10 -16 0 -20 5 -16 15 7 19 -13 19 -40
1 -14 -10 -34 -12 -69 -8 l-50 7 45 5 c43 6 44 6 16 14 -16 5 -40 5 -55 0 -23
-9 -26 -15 -26 -58 0 -47 -1 -47 -27 -42 -26 5 -28 3 -28 -29 0 -19 -4 -35
-10 -35 -5 0 -10 22 -10 49 0 28 -4 53 -10 56 -20 13 -10 27 15 21 37 -9 31
16 -8 35 -30 15 -32 19 -32 68 0 49 -1 51 -28 51 -16 0 -26 -4 -22 -10 3 -5 4
-10 2 -10 -3 0 -14 15 -25 34 -24 41 -33 107 -14 114 7 2 10 13 6 28 -4 17 -1
26 10 30 9 3 13 10 10 15 -3 5 2 12 10 15 9 3 16 12 16 20 0 8 7 14 15 14 8 0
15 -4 15 -10 0 -5 4 -10 10 -10 5 0 7 6 4 14 -3 7 2 16 10 19 9 4 16 14 16 22
0 9 4 14 9 11 5 -3 12 1 15 10 4 10 12 14 22 10 10 -4 18 1 21 13 3 11 16 27
30 36 13 9 22 22 19 30 -2 7 4 21 15 31 11 10 18 26 16 36 -3 10 -2 18 3 18 4
0 11 7 14 16 4 10 0 15 -12 13 -31 -3 -43 1 -37 11 4 6 19 9 33 8 19 -2 27 2
27 12 0 8 -6 14 -13 12 -9 -1 -12 6 -10 20 2 18 -1 22 -17 20 -10 -2 -24 -11
-31 -20 -10 -14 -14 -14 -28 -3 -21 18 -20 31 2 31 16 1 16 1 0 14 -20 15 -24
41 -8 51 23 14 7 26 -32 24 -38 -3 -43 -1 -40 16 2 17 -1 16 -18 -6 -14 -19
-28 -26 -47 -24 -44 4 -83 23 -83 40 0 10 -5 13 -12 9 -7 -4 -8 -3 -4 5 5 7
-3 29 -18 51 -14 22 -26 42 -26 45 0 15 -41 93 -55 105 -8 7 -15 24 -15 38 0
14 -7 34 -16 44 -11 12 -14 22 -7 30 26 35 -8 145 -41 132 -8 -3 -17 -1 -21 5
-8 14 -82 14 -90 1 -4 -6 -10 -8 -14 -6 -4 3 -26 6 -49 7 -58 4 -53 17 6 17
26 1 70 3 97 6 28 4 114 12 192 20 78 8 147 17 153 21 8 5 10 29 6 76 -4 38
-7 130 -7 205 0 88 -5 157 -15 193 -17 64 -27 162 -49 476 -8 121 -17 247 -20
280 -2 33 -7 110 -10 170 -10 195 -25 398 -35 465 -5 36 -17 130 -26 208 -20
162 -35 164 -30 4 3 -81 1 -99 -11 -99 -7 0 -12 6 -9 13 3 8 1 16 -5 19 -5 4
-9 3 -8 -2 4 -22 -2 -43 -11 -38 -6 4 -10 -5 -10 -20 0 -15 4 -24 10 -20 6 3
10 1 10 -5 0 -6 4 -9 9 -6 5 4 7 -3 4 -14 -6 -24 -31 -26 -59 -5 -16 12 -16
14 -3 15 11 0 16 9 16 28 0 15 4 38 8 52 4 16 4 20 -3 12 -7 -10 -11 -10 -22
3 -7 8 -19 15 -26 15 -22 0 -16 16 10 28 16 7 26 7 30 1 2 -5 3 -4 2 3 -2 7
-9 12 -15 10 -6 -1 -14 5 -17 13 -3 8 -10 12 -15 9 -5 -3 -9 5 -9 17 0 18 2
19 15 9 14 -11 15 -8 11 25 -3 20 -8 40 -12 44 -4 3 -4 -2 -1 -11 3 -10 2 -20
-3 -23 -6 -4 -10 -2 -10 4 0 5 -7 16 -15 25 -9 9 -11 17 -5 21 5 3 10 2 10 -3
0 -5 11 -7 25 -4 14 2 25 8 25 12 0 5 8 6 19 3 10 -3 22 0 25 6 4 6 18 11 32
11 13 0 24 5 24 10 0 6 -6 10 -12 10 -10 0 -13 27 -14 98 0 95 -10 248 -20
307 -4 30 -12 374 -19 840 -5 320 -14 710 -16 710 -1 0 -3 11 -5 25 -12 102
-20 138 -34 156 -7 7 -9 18 -6 23 4 5 2 12 -3 16 -6 3 -38 63 -72 133 -35 70
-68 132 -74 138 -6 6 -19 40 -29 75 -10 35 -23 76 -28 92 l-11 28 -151 -3
-151 -3 -17 -35 c-9 -19 -17 -45 -18 -57 0 -13 -3 -23 -7 -24 -5 -1 -26 -3
-48 -5 -22 -2 -51 -5 -65 -6 -14 -2 -25 -1 -25 2 0 3 -19 23 -42 44 -29 26
-43 47 -43 63 0 19 -4 24 -16 19 -9 -3 -21 -6 -27 -6 -6 0 -3 -6 7 -13 17 -12
17 -14 2 -20 -10 -4 -16 -18 -16 -37 0 -16 -4 -30 -9 -30 -15 0 -18 -32 -7
-58 7 -16 7 -26 0 -30 -6 -4 -10 -23 -8 -42 1 -19 -1 -37 -6 -40 -4 -3 -9 -18
-11 -35 -2 -16 -7 -36 -12 -42 -6 -8 -5 -13 2 -13 16 0 14 -19 -5 -38 -13 -13
-22 -14 -45 -5 -27 11 -29 10 -29 -13 0 -13 5 -23 12 -21 7 1 13 -4 14 -10 1
-7 3 -16 4 -20 1 -5 1 -12 0 -18 -1 -5 -2 -30 -1 -53 1 -24 -3 -50 -10 -58 -9
-11 -9 -14 0 -14 7 0 9 -5 6 -10 -4 -6 -11 -7 -17 -4 -6 4 -8 3 -5 -3 4 -6 -1
-18 -11 -28 -14 -15 -16 -33 -14 -97 2 -44 -1 -85 -6 -91 -5 -7 -8 -31 -7 -55
2 -23 -1 -45 -6 -48 -5 -3 -7 -9 -4 -14 10 -16 -25 -80 -44 -80 -28 0 -34 -42
-15 -92 28 -71 30 -171 5 -224 -44 -92 -55 -150 -60 -305 -1 -11 -17 -21 -46
-29 -59 -16 -75 -3 -100 83 -10 34 -30 83 -44 109 -22 40 -24 50 -13 70 7 13
23 28 35 33 18 8 24 22 30 70 7 58 22 134 34 185 3 13 13 31 20 39 8 7 12 19
9 27 -3 7 0 14 7 17 7 2 12 23 12 51 0 27 6 50 13 55 7 4 15 22 17 40 5 39 36
111 47 111 12 0 4 66 -10 83 -7 8 -10 22 -6 31 4 11 1 16 -10 16 -9 0 -16 5
-16 11 0 5 -4 8 -9 5 -11 -7 -72 48 -75 67 -1 7 -10 22 -21 33 -31 32 -69 78
-81 100 -8 12 -21 18 -38 17 -14 -1 -26 1 -26 5 0 4 -12 20 -26 36 -16 16 -23
31 -17 35 13 8 22 70 11 73 -5 2 -10 22 -11 45 -2 37 1 42 32 59 43 24 142 25
168 2 25 -22 45 -27 66 -16 19 10 24 38 6 38 -6 0 -9 7 -5 15 3 8 1 15 -5 15
-6 0 -7 5 -4 10 7 11 -34 30 -51 23 -13 -5 -36 69 -28 91 6 15 -207 16 -2545
16 l-2551 0 0 -5400z m291 4862 c7 11 9 11 9 -1 0 -9 8 -11 25 -7 18 5 25 2
25 -8 0 -8 5 -27 11 -43 18 -43 21 -97 10 -158 -9 -45 -7 -63 5 -96 14 -33 14
-47 5 -82 -6 -23 -13 -55 -15 -72 -7 -60 -19 -111 -32 -137 -8 -15 -14 -45
-14 -67 0 -30 -6 -44 -25 -59 -14 -11 -25 -25 -25 -32 0 -15 -85 -100 -100
-100 -5 0 -10 -11 -10 -25 0 -14 -4 -25 -10 -25 -5 0 -10 7 -10 15 0 8 -4 15
-10 15 -5 0 -9 -10 -8 -22 1 -44 -13 -69 -36 -62 -11 3 -27 12 -35 20 -15 13
-15 15 -25 409 -2 66 1 132 5 148 5 16 4 25 -1 22 -6 -3 -8 6 -5 22 3 15 7 53
9 83 3 43 7 55 20 55 17 0 46 46 46 72 0 10 6 12 22 7 19 -6 21 -4 11 7 -19
24 -2 83 26 87 15 2 21 8 17 18 -3 8 1 17 9 20 8 4 12 10 9 15 -3 5 6 9 20 9
20 0 26 5 26 23 1 17 6 12 22 -21 15 -31 23 -40 29 -30z m4944 -1482 c8 -96
22 -266 30 -377 8 -111 17 -213 21 -227 l6 -26 -136 0 c-133 0 -136 0 -140 23
-6 27 -36 276 -36 295 0 11 -12 13 -47 8 -27 -3 -82 -8 -124 -11 l-75 -6 -12
158 c-7 87 -12 170 -12 184 0 30 -13 26 210 65 230 40 278 52 285 75 4 11 8
19 10 17 3 -2 11 -82 20 -178z m-1641 -368 c9 -84 16 -158 16 -165 0 -14 -127
-43 -138 -33 -3 3 9 9 26 12 17 4 30 9 29 13 0 3 4 15 10 27 7 12 9 34 4 55
-4 19 -6 59 -5 89 1 30 -2 67 -8 82 -10 27 -56 58 -86 58 -26 0 -9 7 33 13 28
5 34 4 20 -3 -19 -8 -19 -9 3 -9 14 -1 22 5 22 15 0 8 4 13 8 10 4 -2 14 -1
22 4 23 14 27 -2 44 -168z m2495 -1052 c1 -11 1 -30 2 -41 0 -29 -7 -34 -26
-19 -13 11 -18 9 -34 -9 -14 -16 -21 -18 -25 -9 -3 7 -4 2 -3 -11 3 -30 27
-41 27 -12 0 25 10 32 37 25 18 -5 21 -14 22 -67 0 -39 -2 -57 -8 -48 -5 8 -7
-4 -4 -33 5 -40 3 -46 -13 -46 -16 0 -16 -2 -4 -10 21 -13 7 -22 -24 -14 -17
4 -26 13 -26 25 0 17 -22 25 -54 20 -4 -1 -20 6 -35 16 l-26 17 25 7 c14 4 18
7 8 8 -12 1 -18 16 -23 63 -5 44 -4 63 4 66 9 3 9 8 1 17 -9 11 -7 12 9 8 18
-5 21 -1 21 26 0 31 14 42 23 19 4 -9 8 -10 14 -2 12 16 33 22 75 23 30 1 37
-3 37 -19z m-229 -357 c3 -3 6 -85 8 -184 l3 -179 -114 0 c-84 0 -114 3 -114
13 0 6 -4 80 -7 164 -9 188 -8 191 77 195 63 4 138 -1 147 -9z m71 -843 c3
-58 8 -139 10 -180 l4 -74 -40 -8 c-64 -12 -416 -31 -582 -32 -84 -1 -153 -4
-153 -8 0 -5 -13 -8 -29 -8 -16 0 -31 3 -34 8 -2 4 -2 2 -1 -5 3 -12 -42 -23
-176 -42 -138 -19 -151 -20 -145 -10 4 5 16 9 29 9 12 0 26 3 30 7 4 4 26 9
49 10 23 1 48 2 55 2 6 1 12 12 12 26 0 15 7 28 18 32 9 4 20 11 24 17 5 7 8
6 8 -3 0 -15 28 -40 45 -41 6 0 4 4 -4 9 -11 7 -9 10 8 16 11 3 25 3 31 0 6
-4 10 5 10 19 0 26 -16 44 -22 25 -3 -8 -12 -7 -31 6 -19 12 -27 26 -27 46 0
21 -5 29 -17 29 -14 0 -15 2 -4 9 7 5 11 13 7 19 -12 20 28 23 44 3 10 -14 22
-19 38 -15 12 4 28 1 35 -5 8 -6 17 -8 20 -4 4 3 7 -3 7 -15 0 -29 17 -28 23
1 3 12 4 5 4 -15 -1 -33 -4 -38 -24 -38 -13 0 -23 -5 -23 -11 0 -5 -6 -7 -12
-3 -7 4 -5 -2 5 -14 12 -13 30 -20 48 -20 l29 1 -6 81 c-13 157 -19 199 -32
204 -7 2 -10 -2 -6 -12 4 -10 1 -16 -7 -16 -8 0 -25 -3 -39 -6 -20 -4 -22 -3
-10 5 12 9 11 11 -8 11 -13 0 -20 -4 -17 -10 3 -5 -1 -10 -10 -10 -9 0 -13 5
-10 10 4 6 -7 10 -25 10 -18 0 -29 -4 -25 -10 3 -5 1 -10 -5 -10 -7 0 -10 5
-8 12 5 13 96 37 145 38 18 0 36 7 41 16 7 13 48 17 258 25 137 6 287 14 334
18 47 5 101 8 120 7 l35 -1 6 -105z m-1277 -82 c3 -29 10 -97 16 -150 5 -53
10 -101 10 -108 0 -6 14 -17 31 -24 l31 -13 -63 -7 c-35 -4 -77 -9 -94 -12
-16 -2 -113 -8 -215 -14 -206 -11 -436 -26 -549 -36 l-73 -7 18 21 c13 16 22
18 35 11 20 -10 49 -2 49 13 0 6 6 8 13 5 8 -3 21 7 31 24 17 29 17 82 0 184
-4 22 -8 55 -8 74 -1 32 2 35 34 42 19 4 172 14 340 24 168 9 310 18 315 20 6
2 24 4 42 4 31 1 32 0 37 -51z m3520 -555 c2 7 5 -3 5 -20 1 -34 -6 -39 -56
-34 -13 1 -23 -3 -23 -9 0 -5 5 -10 10 -10 17 0 11 -29 -9 -42 -10 -6 -17 -18
-14 -25 3 -9 -3 -13 -21 -13 -14 0 -26 -4 -26 -9 0 -13 -114 -34 -118 -21 -2
5 -8 10 -13 10 -6 0 -8 -4 -5 -8 3 -5 -8 -6 -25 -4 -16 2 -29 8 -29 13 0 5 -7
9 -15 9 -8 0 -15 9 -15 20 0 11 -4 20 -10 20 -5 0 -10 9 -10 20 0 11 6 20 14
20 8 0 16 7 20 15 3 8 14 15 24 15 10 0 22 3 26 7 10 10 116 44 156 49 19 3
36 6 38 8 2 2 23 -2 47 -9 33 -11 45 -11 49 -2z m1867 -1007 c69 -69 84 -99
69 -137 -16 -38 -7 -114 15 -139 10 -11 16 -20 14 -21 -62 -11 -86 -27 -118
-78 -35 -53 -40 -58 -57 -41 -7 7 -19 6 -38 -4 -31 -16 -24 -24 18 -22 24 1
31 -4 40 -26 6 -15 14 -28 18 -28 4 0 8 -7 8 -17 0 -9 -3 -13 -7 -10 -9 10
-33 -40 -44 -95 -11 -51 -35 -74 -60 -56 -11 8 -9 8 6 3 16 -5 18 -4 7 7 -10
10 -17 10 -31 1 -27 -17 -53 11 -40 43 4 13 6 24 3 24 -2 0 2 14 11 30 9 17
20 30 26 30 7 0 10 14 7 35 -3 25 0 35 12 39 8 2 3 4 -11 5 -15 0 -41 14 -58
30 -18 17 -38 28 -45 25 -7 -3 -21 4 -31 16 -19 21 -45 27 -45 9 0 -6 -15 -9
-37 -7 -36 3 -38 2 -68 -57 l-30 -59 -3 46 c-3 39 -6 45 -22 41 -17 -5 -31
-23 -36 -48 -1 -5 -3 -13 -4 -17 -4 -12 -7 -27 -9 -37 0 -5 -10 -11 -21 -14
-19 -5 -20 0 -21 131 -1 76 -1 140 0 144 0 4 -6 26 -14 49 -21 58 -19 79 6 79
19 0 20 -4 14 -50 l-7 -50 40 0 c23 0 44 5 47 10 16 26 80 0 122 -48 l21 -25
94 12 c51 7 107 14 125 17 l32 5 -17 28 c-9 15 -25 40 -35 54 -10 14 -20 32
-21 39 -2 7 -8 32 -15 56 -11 38 -10 47 5 70 26 40 38 50 65 54 57 9 69 5 120
-46z m-996 -238 c17 -1 62 0 100 1 120 3 245 -29 245 -64 0 -18 1 -18 -43 0
-25 10 -72 15 -150 15 -63 0 -129 5 -147 11 -37 14 -54 -1 -45 -39 4 -16 0
-24 -12 -29 -10 -3 -30 -15 -45 -25 -22 -15 -31 -17 -49 -7 -17 9 -20 8 -13
-3 6 -10 5 -11 -7 -2 -15 12 -19 12 -89 -5 -65 -15 -175 -14 -189 2 -8 11 -5
19 13 36 23 22 40 24 235 34 37 2 54 23 24 29 -10 2 -56 -2 -103 -9 -64 -9
-94 -10 -123 -1 -53 16 -33 29 50 34 96 5 152 14 158 24 3 5 40 6 83 4 42 -3
91 -5 107 -6z m243 -106 c30 -7 57 -10 62 -7 11 7 20 -20 20 -61 0 -24 -5 -34
-15 -34 -11 0 -15 -12 -15 -46 0 -32 -4 -44 -12 -42 -21 7 -79 89 -85 119 -4
22 -11 29 -29 29 -14 0 -25 8 -29 19 -3 11 -15 23 -26 26 -10 4 -19 11 -19 16
0 6 8 8 18 5 9 -3 24 -1 32 4 9 6 20 5 30 -4 8 -7 39 -18 68 -24z m907 28 c-3
-5 8 -4 27 2 22 8 33 8 35 1 2 -6 22 -8 48 -5 34 3 45 1 47 -9 4 -43 2 -65 -7
-71 -6 -5 -5 -12 5 -18 13 -10 13 -11 0 -8 -8 1 -39 -1 -68 -5 -50 -7 -55 -6
-75 20 -34 42 -43 103 -16 103 6 0 8 -4 4 -10z m-1464 -169 c75 -12 142 -74
83 -77 -46 -2 -47 -3 -34 -19 10 -11 9 -17 -3 -29 -13 -14 -16 -13 -22 7 -4
12 -7 27 -6 33 1 6 -17 14 -39 18 -22 3 -55 14 -74 23 -32 15 -84 11 -60 -5 5
-4 11 -21 12 -38 2 -36 -18 -50 -48 -34 -15 8 -17 16 -10 40 5 16 11 34 14 39
4 5 2 12 -4 16 -19 11 -10 21 28 32 36 11 63 10 163 -6z m305 -99 c12 -10 29
-34 39 -53 30 -58 44 -69 92 -69 80 0 130 -42 117 -97 -10 -40 -63 -101 -106
-124 -21 -11 -38 -26 -38 -34 0 -8 -4 -15 -10 -15 -5 0 -10 9 -10 20 0 30 -30
113 -47 130 -14 13 -15 12 -10 -10 6 -21 0 -53 -20 -119 -2 -10 -9 -6 -18 13
-19 36 -19 47 0 40 16 -6 19 4 9 30 -3 9 -10 13 -15 10 -5 -3 -12 2 -15 10 -3
9 -11 16 -18 16 -6 0 -19 13 -28 30 -20 35 -15 85 13 145 10 22 21 52 24 68 6
31 12 33 41 9z m1436 -81 c-11 -7 -10 -24 3 -54 9 -22 -1 -91 -15 -95 -5 -2
-10 -15 -10 -28 0 -27 -14 -31 -36 -10 -10 10 -26 13 -52 9 -44 -7 -62 -27
-28 -31 13 -2 32 -12 42 -23 9 -10 25 -19 34 -19 43 0 40 -75 -5 -127 -19 -23
-35 -45 -35 -50 0 -6 -12 -15 -27 -22 -34 -16 -40 -6 -48 79 -3 36 -9 83 -12
104 -5 39 -6 39 -18 15 -7 -13 -16 -54 -20 -92 -3 -37 -10 -65 -14 -63 -15 10
-29 -11 -35 -58 -7 -44 -6 -48 10 -42 10 4 15 4 11 0 -4 -4 1 -12 9 -19 14
-10 12 -14 -20 -33 -34 -20 -36 -24 -30 -60 7 -44 -7 -62 -32 -41 -8 6 -12 14
-9 17 3 3 0 11 -6 18 -6 7 -7 19 -3 26 11 17 13 48 2 42 -4 -3 -8 -14 -8 -26
0 -16 -3 -18 -14 -9 -8 7 -17 22 -20 35 -5 22 -36 61 -106 132 -17 17 -30 41
-30 55 l1 24 17 -22 c9 -12 39 -51 65 -87 46 -64 73 -84 64 -48 -3 9 -8 30
-12 47 -6 28 -6 29 12 12 15 -13 22 -14 32 -4 11 10 12 5 7 -23 -7 -33 -6 -34
9 -15 22 28 13 164 -13 183 -13 10 -14 14 -4 21 7 4 15 17 16 27 3 15 10 18
40 16 34 -3 48 9 26 23 -5 3 -10 13 -10 22 0 9 -8 22 -17 29 -17 13 -17 14 5
20 12 3 22 10 22 14 0 4 18 12 40 19 31 9 45 22 66 56 14 25 30 43 34 40 4 -3
10 2 13 10 3 7 23 17 44 20 21 3 45 10 53 14 17 10 29 -18 12 -28z m-6129 -22
c11 -7 30 -20 41 -30 11 -11 25 -18 30 -18 42 5 46 0 46 -61 0 -68 -13 -82
-52 -56 -13 8 -33 17 -43 19 -71 13 -136 47 -90 47 19 0 19 4 -1 42 -16 31
-16 33 6 50 26 21 34 22 63 7z m4207 -215 c19 -7 45 -13 57 -14 12 0 24 -4 28
-9 3 -5 31 -13 63 -17 31 -3 81 -16 111 -29 50 -21 54 -25 57 -61 2 -21 -3
-51 -11 -68 -8 -16 -15 -41 -15 -55 0 -14 -7 -34 -15 -45 -13 -17 -14 -17 -20
10 -10 45 -24 74 -36 74 -6 0 -10 -10 -9 -22 1 -13 2 -34 1 -47 -1 -21 -3 -22
-18 -10 -11 10 -14 10 -9 2 4 -7 3 -13 -2 -13 -12 0 -37 30 -47 55 -7 21 -11
12 -45 -118 -17 -64 -32 -43 -28 40 2 34 -1 65 -5 69 -4 4 -7 -1 -7 -12 0 -10
-7 -28 -16 -39 -13 -17 -17 -18 -35 -6 -25 15 -38 5 -41 -32 -1 -15 -8 -27
-15 -27 -8 0 -16 -7 -19 -15 -9 -23 -22 -8 -16 20 2 14 -1 32 -8 40 -6 8 -9
18 -7 22 6 10 13 76 22 203 8 114 13 133 34 124 9 -4 32 -13 51 -20z m-5326
-20 c9 -3 16 -12 16 -19 0 -18 65 -27 209 -29 71 -1 125 -6 138 -14 23 -13 73
-73 73 -87 0 -4 8 -13 17 -20 15 -11 12 -15 -24 -38 -23 -15 -58 -27 -77 -29
-60 -4 -42 -40 25 -52 45 -8 86 -43 69 -60 -6 -6 -14 -11 -18 -12 -4 0 -27 -4
-51 -8 -57 -11 -211 2 -211 17 0 7 -6 24 -14 38 -7 15 -12 39 -9 55 7 53 4
114 -7 135 -10 18 -17 20 -61 14 -52 -7 -78 6 -83 43 -2 12 -13 17 -37 19 -19
1 -42 2 -52 2 -23 1 -34 30 -16 42 16 10 90 12 113 3z m449 -534 c-7 -62 -6
-168 1 -179 5 -8 22 -10 51 -6 27 5 45 3 49 -4 4 -6 18 -11 32 -11 13 0 24 -4
24 -9 0 -18 -56 -22 -97 -7 -37 13 -42 13 -48 -1 -8 -23 36 -109 55 -106 8 1
28 -16 44 -38 17 -24 34 -38 42 -35 18 7 18 -8 0 -23 -20 -17 -79 -8 -114 17
-16 12 -37 22 -45 22 -17 0 -27 41 -27 106 0 43 -12 58 -24 29 -3 -8 -15 -15
-27 -15 -12 0 -23 -8 -26 -19 -4 -17 -6 -17 -29 4 -16 15 -22 28 -17 40 5 13
3 16 -7 10 -8 -5 -11 -3 -8 6 3 8 12 13 21 13 12 -1 13 4 6 30 -5 17 -7 45 -3
61 7 37 45 95 62 95 15 0 16 26 1 36 -20 12 10 21 49 15 32 -6 37 -10 35 -31z
m-217 -5 c28 -19 38 -80 19 -109 -8 -12 -15 -36 -17 -54 -3 -38 -13 -42 -22
-6 -4 14 -22 34 -41 46 -28 16 -35 26 -35 51 0 18 -3 42 -6 54 -4 15 -1 22 13
26 36 9 69 7 89 -8z m-1644 -79 c53 -8 107 -22 121 -31 22 -14 41 -47 38 -67
-1 -5 4 -8 9 -8 6 0 10 -4 10 -10 0 -5 -6 -10 -14 -10 -8 0 -21 -9 -28 -19
-18 -26 -48 -29 -78 -8 -13 9 -36 17 -50 17 -37 0 -118 25 -171 53 -55 29 -58
55 -9 79 42 21 47 21 172 4z m5842 -124 c11 -13 14 -28 10 -49 -5 -26 -3 -32
16 -38 13 -4 25 -3 30 4 7 13 40 4 40 -10 0 -5 -12 -9 -26 -9 -20 0 -25 -4
-20 -16 3 -9 6 -22 6 -30 0 -20 17 -18 50 6 l29 21 -4 -53 c-2 -37 -8 -54 -18
-56 -8 -2 -18 2 -22 7 -3 6 -15 11 -26 11 -12 0 -17 -4 -14 -11 4 -6 -3 -21
-14 -33 -21 -22 -21 -24 -4 -31 27 -12 63 -5 86 16 19 18 22 18 39 2 10 -9 16
-18 14 -21 -8 -7 23 -34 32 -28 18 11 84 -18 93 -41 9 -24 3 -53 -11 -53 -21
0 -38 13 -33 26 3 9 -2 14 -14 14 -10 0 -28 7 -40 15 -11 8 -44 15 -71 16 -28
1 -49 6 -47 10 8 13 -48 20 -82 10 -37 -11 -113 -3 -113 11 0 23 -43 67 -71
73 -29 7 -30 8 -13 26 9 10 23 19 31 19 7 0 13 7 13 15 0 8 15 21 34 29 19 8
38 21 42 29 5 8 20 20 33 27 21 11 22 13 7 28 -14 14 -17 14 -34 -1 -10 -9
-30 -16 -43 -16 -13 1 -37 -2 -53 -6 -21 -6 -27 -5 -22 4 4 6 14 11 22 11 8 0
14 5 14 10 0 6 9 10 20 10 24 0 26 25 4 38 -30 17 -4 32 55 32 43 0 62 -5 75
-18z m1241 -668 c32 -8 53 -64 30 -80 -14 -11 -21 -44 -9 -44 3 0 13 7 22 16
15 15 17 15 25 -10 5 -15 19 -29 33 -32 15 -4 24 -13 24 -25 0 -25 -27 -24
-42 1 -16 25 -28 26 -28 1 0 -11 -5 -23 -11 -26 -6 -4 -8 -13 -5 -21 4 -10 -2
-14 -21 -14 -26 0 -26 0 -8 20 16 18 17 22 4 35 -15 16 -63 9 -53 -7 3 -5 13
-7 21 -3 13 4 14 3 3 -10 -7 -8 -20 -15 -29 -15 -10 0 -26 -7 -37 -15 -48 -36
-81 3 -69 81 7 52 32 97 47 88 5 -3 19 1 32 10 18 11 22 21 18 42 -4 23 -2 26
12 21 10 -4 28 -10 41 -13z m1019 -140 c24 -9 19 -29 -10 -43 l-26 -12 25 -19
c32 -25 43 -25 50 0 4 15 14 20 36 20 36 0 40 -13 11 -33 -11 -8 -17 -17 -12
-22 4 -4 -3 -5 -16 -2 -16 4 -25 -1 -33 -15 -8 -15 -17 -18 -39 -13 -18 4 -38
1 -52 -8 -31 -20 -76 -5 -107 34 -13 16 -22 31 -20 33 11 9 69 14 64 6 -3 -6
1 -10 9 -10 9 0 16 -4 16 -9 0 -5 8 -11 18 -15 9 -3 22 -8 28 -11 6 -3 14 1
18 10 4 11 2 15 -6 12 -7 -2 -22 0 -33 6 -19 10 -19 11 4 17 l24 6 -27 17
c-19 13 -31 15 -40 8 -13 -11 -53 -4 -75 13 -11 9 -9 12 10 17 39 11 94 10
106 -2 9 -9 16 -8 28 5 18 18 25 19 49 10z m-6039 -226 c20 0 -12 -68 -32 -68
-16 0 -17 12 -1 28 6 6 8 15 4 19 -4 4 -15 -2 -24 -15 -14 -18 -20 -20 -30
-10 -13 13 -13 13 -17 -54 -1 -21 -5 -41 -10 -45 -4 -5 -5 -2 -1 5 4 6 2 12
-4 12 -7 0 -10 7 -7 15 4 8 2 17 -4 20 -9 6 -30 -35 -23 -46 2 -4 -3 -12 -10
-18 -12 -10 -13 -8 -9 8 3 13 1 21 -7 21 -7 0 -9 8 -5 20 6 17 2 20 -29 20
-20 0 -36 5 -36 10 0 6 9 10 19 10 33 0 50 11 44 27 -6 15 5 14 54 -4 6 -3 14
10 18 27 6 29 10 32 35 26 19 -3 33 0 41 10 12 14 14 14 19 -1 3 -9 10 -17 15
-17z m4927 -109 c2 -5 18 -11 35 -13 43 -5 61 -21 73 -66 11 -42 34 -60 96
-78 22 -6 49 -21 59 -32 10 -11 24 -20 32 -20 17 0 17 -1 -8 -47 -11 -21 -30
-43 -42 -48 -17 -8 -23 -20 -25 -50 -4 -50 -35 -77 -52 -45 -6 11 -16 17 -25
14 -19 -8 -19 1 1 20 27 28 -45 13 -74 -15 -14 -13 -29 -23 -33 -22 -3 1 -7
-21 -6 -50 0 -63 -5 -97 -14 -97 -10 0 -20 30 -13 41 3 5 -7 9 -23 9 -36 0
-47 9 -51 40 -2 13 -11 30 -20 37 -11 8 -12 12 -4 13 16 0 16 20 -1 20 -8 0
-19 11 -25 25 -14 30 -42 33 -49 5 -7 -26 -12 -25 -50 11 -36 33 -43 66 -15
75 9 3 27 11 39 16 16 8 26 8 35 0 14 -11 57 -10 77 2 16 10 37 59 40 91 0 8
10 15 21 15 26 0 25 9 -5 50 -14 19 -25 44 -25 56 0 13 -4 26 -10 29 -17 10
-11 30 13 41 21 10 40 0 49 -27z m-4348 -20 c-15 -16 -18 -38 -18 -118 0 -85
3 -101 22 -126 12 -15 19 -32 15 -38 -4 -6 2 -8 15 -5 12 4 24 3 27 -2 7 -11
-22 -21 -40 -14 -9 4 -15 0 -15 -10 0 -9 -6 -16 -14 -16 -8 0 -14 10 -14 23 0
29 -25 114 -45 153 -12 24 -13 34 -4 43 14 15 16 101 2 101 -5 0 -3 5 5 10 9
6 18 6 24 0 15 -15 22 -12 36 18 8 16 14 22 17 14 3 -7 -3 -22 -13 -33z m3721
-54 c24 -23 26 -24 77 -10 32 8 59 10 69 5 16 -9 44 -46 48 -65 2 -5 7 -15 13
-22 5 -7 6 -17 2 -24 -4 -7 -7 -26 -6 -43 1 -21 -2 -26 -8 -16 -14 23 -40 20
-46 -6 -5 -19 -11 -23 -26 -19 -35 12 -92 13 -111 4 -30 -17 -73 -13 -103 8
-21 15 -39 19 -63 15 -25 -3 -32 -1 -26 8 5 9 -3 11 -31 8 -22 -1 -38 0 -36 5
1 4 2 16 2 26 0 14 6 19 23 18 12 0 25 -5 28 -10 4 -6 17 0 29 11 13 12 27 19
32 16 4 -3 12 6 17 19 5 13 17 27 25 30 9 4 16 13 16 22 0 8 5 15 10 15 6 0
10 6 9 13 -1 6 1 20 6 31 7 16 9 17 17 2 5 -9 20 -27 33 -41z m2246 22 c17
-21 14 -57 -5 -69 -6 -4 -12 -16 -12 -28 -1 -11 -2 -27 -3 -35 0 -8 -7 -15
-15 -15 -9 0 -12 -10 -10 -30 3 -23 0 -30 -14 -30 -10 0 -13 -3 -7 -8 12 -8
14 -122 3 -122 -5 0 -8 -5 -8 -11 0 -18 -49 -59 -69 -59 -10 0 -24 7 -31 15
-7 9 -19 14 -26 11 -22 -8 -56 64 -58 124 -1 8 -14 17 -31 20 -27 5 -31 10
-36 48 -3 24 -11 47 -19 52 -20 13 -4 37 29 45 31 7 52 30 44 50 -7 20 37 55
70 56 18 1 53 3 79 4 26 0 51 4 54 8 12 11 47 -3 65 -26z m-3826 -57 c0 -16
64 -53 81 -46 6 2 23 -6 39 -18 21 -17 26 -27 21 -44 -6 -18 -11 -20 -28 -11
-22 12 -118 3 -118 -12 0 -5 -8 -9 -17 -9 -9 0 -36 -9 -60 -21 -41 -20 -73
-20 -73 -2 0 5 14 14 30 20 31 12 41 33 15 33 -8 0 -30 8 -49 18 -38 19 -44
47 -13 64 18 9 18 10 0 23 -17 13 -16 14 11 15 16 0 34 -7 41 -16 10 -15 13
-15 28 1 9 9 17 12 17 6 0 -6 9 -11 21 -11 15 0 19 4 15 16 -4 12 0 15 17 12
12 -2 22 -10 22 -18z m-2167 -284 c14 -23 33 -38 63 -48 43 -14 65 -38 35 -38
-9 0 -16 -4 -16 -10 0 -5 3 -10 8 -10 18 0 32 -40 22 -65 -8 -22 -16 -25 -55
-25 -46 0 -58 13 -33 38 9 9 10 15 2 20 -6 4 -13 15 -17 24 -3 9 -22 24 -41
33 -39 19 -41 23 -25 78 12 46 31 47 57 3z m-998 -133 c-1 -29 -48 -57 -74
-45 -18 8 -22 7 -23 -8 -2 -27 37 -33 60 -10 15 17 47 26 61 18 2 -2 13 5 23
14 23 21 95 38 76 18 -6 -7 -9 -18 -6 -25 2 -8 -6 -19 -18 -25 -19 -10 -24
-10 -34 4 -7 8 -15 13 -19 9 -6 -6 -36 -18 -111 -45 -51 -17 -124 -25 -128
-14 -3 8 -11 7 -25 -1 -12 -7 -28 -10 -35 -7 -8 3 -27 -6 -41 -19 -17 -16 -22
-27 -15 -29 15 -5 4 -24 -21 -38 -17 -9 -18 -7 -13 27 7 51 23 65 72 67 23 0
41 4 41 8 0 5 6 8 14 8 8 0 29 13 47 30 27 24 135 78 162 80 4 0 7 -8 7 -17z
m230 -178 c8 -2 17 -4 20 -5 3 -1 21 -1 40 -1 49 2 67 -11 54 -41 -6 -13 -7
-38 -4 -55 5 -24 4 -33 -5 -33 -7 0 -16 -7 -19 -15 -9 -24 -60 -14 -64 13 -2
12 1 22 7 22 6 0 11 13 11 30 0 24 -5 31 -26 36 -17 4 -29 2 -35 -7 -5 -9 -4
-15 5 -17 14 -3 17 -52 4 -52 -18 0 -38 14 -38 26 0 8 -4 14 -10 14 -17 0 -30
38 -23 70 6 34 4 33 83 15z m94 -704 c43 -1 48 -3 43 -21 -3 -11 0 -20 5 -20
6 0 3 -9 -7 -20 -10 -11 -26 -20 -36 -20 -10 0 -21 -5 -24 -11 -8 -12 -113 -2
-132 13 -15 12 11 58 33 58 8 0 14 6 14 14 0 10 9 14 28 12 15 -2 49 -4 76 -5z"/>
<path d="M8993 6559 c-70 -9 -119 -30 -127 -56 -34 -120 -28 -182 23 -224 15
-13 36 -37 46 -54 38 -60 104 -100 127 -77 12 12 68 -4 68 -20 0 -5 4 -7 9 -4
5 3 14 -1 21 -9 7 -8 16 -12 21 -9 5 3 9 0 9 -5 0 -6 13 -11 29 -11 17 0 32
-4 35 -9 3 -5 15 -7 26 -4 11 3 20 0 20 -6 0 -6 6 -11 14 -11 8 0 25 -12 38
-27 33 -40 53 -38 66 6 16 51 13 129 -5 135 -7 3 -16 -1 -19 -9 -4 -8 -19 -15
-34 -15 -22 0 -28 4 -28 23 1 12 -4 42 -10 67 -6 25 -17 69 -23 98 -8 36 -23
65 -44 88 -28 29 -39 34 -78 34 -37 0 -50 5 -73 29 -15 16 -32 40 -38 53 -10
22 -14 23 -73 17z"/>
<path d="M10730 192 c0 -6 -9 -14 -20 -17 -11 -4 -17 -11 -14 -17 4 -7 2 -8
-5 -4 -6 4 -27 -2 -46 -14 -19 -12 -39 -19 -45 -15 -13 8 -52 -4 -45 -15 3 -4
-2 -11 -11 -14 -22 -9 -23 -8 -17 14 4 15 0 20 -15 20 -33 0 -51 -11 -45 -26
3 -9 -1 -14 -12 -14 -9 0 -13 -5 -10 -10 3 -6 4 -10 0 -10 -3 0 -10 12 -15 26
-8 21 -13 24 -25 14 -7 -6 -11 -18 -8 -27 5 -12 1 -14 -18 -8 -13 4 -28 14
-34 20 -6 8 -17 10 -30 5 -18 -7 -17 -9 14 -23 33 -14 29 -33 -4 -21 -12 5
-16 2 -13 -12 2 -11 -3 -19 -9 -18 -7 1 -20 2 -28 2 -8 1 -15 9 -15 17 0 16
-35 20 -64 9 -19 -7 -21 -54 -3 -54 21 0 28 12 16 27 -9 10 -6 13 13 13 13 0
31 -9 40 -19 15 -18 34 -19 277 -20 l261 -2 0 74 c0 43 -5 78 -12 85 -9 9 -9
12 0 12 7 0 12 7 12 15 0 21 -13 19 -28 -5 -7 -11 -20 -20 -30 -19 -15 0 -15
1 1 8 17 6 17 8 3 20 -10 8 -16 9 -16 3z"/>
</g>
</svg>
